<?xml version="1.0" ?><!DOCTYPE svg  PUBLIC '-//W3C//DTD SVG 1.1//EN'  'http://www.w3.org/Graphics/SVG/1.1/DTD/svg11.dtd'><svg enable-background="new 0 0 24 24" height="24px" id="Layer_1" version="1.1" viewBox="0 0 24 24" width="24px" xml:space="preserve" xmlns="http://www.w3.org/2000/svg" xmlns:xlink="http://www.w3.org/1999/xlink"><path d="M23,8h-7V1c0-0.6-0.4-1-1-1H9C8.4,0,8,0.4,8,1v7H1C0.4,8,0,8.4,0,9v6c0,0.6,0.4,1,1,1h7v7c0,0.6,0.4,1,1,1h6  c0.6,0,1-0.4,1-1v-7h7c0.6,0,1-0.4,1-1V9C24,8.4,23.6,8,23,8z M22,14h-8v8h-4v-8H2v-4h8V2h4v8h8V14z"/></svg>